<svg width="512" height="512" viewBox="0 0 512 512" fill="none" xmlns="http://www.w3.org/2000/svg">
<g clip-path="url(#clip0_2701_145)">
<rect x="8" y="10" width="494" height="494" rx="53" fill="#DC241E" stroke="black" stroke-width="16"/>
<path d="M338.535 6.5C349.824 6.5 360.963 14.5907 360.963 26.8447V469.607C360.963 471.167 362.217 473.573 365.737 474.583L372.754 476.596L373.074 476.688L373.385 476.808C381.436 479.913 386.015 482.342 393.175 487.412C398.328 490.565 401.218 492.772 405.526 496.478H405.525C406.397 497.227 407.168 498.112 407.794 499.112L407.795 499.113C410.356 503.207 409.85 507.931 407.495 511.324C405.222 514.599 401.414 516.5 397.335 516.5H112.665C108.586 516.5 104.778 514.599 102.505 511.324C100.15 507.931 99.6437 503.207 102.205 499.113L102.206 499.112C102.832 498.112 103.603 497.227 104.475 496.478C108.782 492.773 111.672 490.564 116.824 487.412C123.984 482.341 128.564 479.913 136.615 476.808L136.926 476.688L137.246 476.596L144.263 474.583L144.586 474.484C147.86 473.424 149.037 471.119 149.037 469.607V26.8447C149.037 14.5908 160.176 6.5 171.465 6.5H338.535Z" fill="white" stroke="black" stroke-width="15"/>
<path d="M308 315H202C197.582 315 194 311.418 194 307V54C194 49.5817 197.582 46 202 46H308C312.418 46 316 49.5817 316 54V307C316 311.418 312.418 315 308 315Z" fill="#D1EFFD" stroke="black" stroke-width="8"/>
<path d="M280 380V356C280 352.686 282.686 350 286 350H311C314.314 350 317 352.686 317 356V380C317 383.314 314.314 386 311 386H286C282.686 386 280 383.314 280 380Z" fill="#010101" stroke="black" stroke-width="6"/>
</g>
<defs>
<clipPath id="clip0_2701_145">
<rect width="512" height="512" fill="white"/>
</clipPath>
</defs>
</svg>
