<svg width="183" height="191" viewBox="0 0 183 191" fill="none" xmlns="http://www.w3.org/2000/svg">
<g clip-path="url(#clip0_2681_639)">
<rect width="183" height="191" rx="55" fill="url(#paint0_linear_2681_639)"/>
<path d="M106.348 155H83.6914C83.1706 155 82.9102 154.674 82.9102 154.023L83.3008 16.6211C83.3008 16.1003 83.5612 15.8398 84.082 15.8398H124.512C131.738 15.8398 138.379 17.5977 144.434 21.1133C150.488 24.6289 155.306 29.349 158.887 35.2734C162.533 41.1979 164.355 47.9036 164.355 55.3906C164.355 60.2734 163.607 64.7005 162.109 68.6719C160.612 72.6432 158.854 75.9961 156.836 78.7305C154.883 81.4648 153.092 83.4831 151.465 84.7852C158.691 92.793 162.305 102.201 162.305 113.008L162.5 154.023C162.5 154.674 162.174 155 161.523 155H138.867C138.346 155 138.086 154.805 138.086 154.414V113.008C138.086 108.19 136.393 104.023 133.008 100.508C129.622 96.9922 125.456 95.2344 120.508 95.2344H107.324L107.129 154.023C107.129 154.674 106.868 155 106.348 155ZM124.512 39.7656H107.324V71.2109H124.512C128.613 71.2109 132.259 69.681 135.449 66.6211C138.704 63.5612 140.332 59.8177 140.332 55.3906C140.332 51.1589 138.77 47.513 135.645 44.4531C132.52 41.3281 128.809 39.7656 124.512 39.7656Z" fill="black"/>
<mask id="path-4-outside-1_2681_639" maskUnits="userSpaceOnUse" x="14.0354" y="94.9554" width="146.068" height="82.1203" fill="black">
<rect fill="white" x="14.0354" y="94.9554" width="146.068" height="82.1203"/>
<path d="M159.022 136.062C159.028 143.158 157.211 149.703 153.57 155.695C149.929 161.623 145.082 166.379 139.031 169.965C132.914 173.486 126.21 175.249 118.918 175.255L109.738 175.263C109.022 175.263 108.664 174.938 108.663 174.287L108.645 151.826C108.644 151.305 109.002 151.044 109.718 151.044L118.898 151.036C123.26 151.033 127.035 149.565 130.222 146.632C133.345 143.7 134.905 140.183 134.901 136.082C134.898 131.915 133.3 128.368 130.107 125.441C126.85 122.514 123.105 121.052 118.873 121.056C113.99 121.06 109.729 124.253 106.088 130.637C105.438 131.679 104.658 133.047 103.748 134.74C102.773 136.369 101.667 138.323 100.432 140.602C99.1972 142.882 97.9946 145.096 96.8245 147.246C95.5893 149.395 94.4191 151.48 93.314 153.499C89.0232 160.794 83.6565 166.235 77.2142 169.821C70.7067 173.342 63.4165 175.105 55.3435 175.112C47.9217 175.118 41.2144 173.301 35.2219 169.66C29.2944 166.019 24.603 161.27 21.1476 155.414C17.6271 149.492 15.864 143.081 15.8583 136.18C15.8525 129.083 17.6049 122.572 21.1157 116.644C24.6915 110.717 29.4402 105.993 35.3618 102.472C41.2833 98.8866 47.9225 97.0908 55.2793 97.0847L71.6855 97.0712C72.2063 97.0708 72.467 97.331 72.4674 97.8518L72.4859 120.313C72.4863 120.834 72.2261 121.094 71.7053 121.095L55.2992 121.303C50.6117 121.307 46.8043 122.775 43.8771 125.707C40.9498 128.64 39.4878 132.124 39.4911 136.16C39.4945 140.262 41.0599 143.776 44.1873 146.703C47.3147 149.63 51.0269 151.092 55.3237 151.089C59.6857 151.085 63.3308 150.171 66.259 148.345C69.1871 146.455 71.9838 143.035 74.649 138.084C74.909 137.563 75.559 136.358 76.5991 134.47C77.6392 132.581 78.8094 130.496 80.1096 128.217C81.3446 125.872 82.4822 123.755 83.5223 121.866C84.4973 119.977 85.0823 118.838 85.2773 118.447C88.9828 111.803 93.5358 106.558 98.9362 102.713C104.337 98.8021 110.976 96.8435 118.853 96.837C126.47 96.8308 133.308 98.5829 139.365 102.094C145.423 105.669 150.212 110.418 153.733 116.34C157.253 122.261 159.016 128.835 159.022 136.062Z"/>
</mask>
<path d="M159.022 136.062C159.028 143.158 157.211 149.703 153.57 155.695C149.929 161.623 145.082 166.379 139.031 169.965C132.914 173.486 126.21 175.249 118.918 175.255L109.738 175.263C109.022 175.263 108.664 174.938 108.663 174.287L108.645 151.826C108.644 151.305 109.002 151.044 109.718 151.044L118.898 151.036C123.26 151.033 127.035 149.565 130.222 146.632C133.345 143.7 134.905 140.183 134.901 136.082C134.898 131.915 133.3 128.368 130.107 125.441C126.85 122.514 123.105 121.052 118.873 121.056C113.99 121.06 109.729 124.253 106.088 130.637C105.438 131.679 104.658 133.047 103.748 134.74C102.773 136.369 101.667 138.323 100.432 140.602C99.1972 142.882 97.9946 145.096 96.8245 147.246C95.5893 149.395 94.4191 151.48 93.314 153.499C89.0232 160.794 83.6565 166.235 77.2142 169.821C70.7067 173.342 63.4165 175.105 55.3435 175.112C47.9217 175.118 41.2144 173.301 35.2219 169.66C29.2944 166.019 24.603 161.27 21.1476 155.414C17.6271 149.492 15.864 143.081 15.8583 136.18C15.8525 129.083 17.6049 122.572 21.1157 116.644C24.6915 110.717 29.4402 105.993 35.3618 102.472C41.2833 98.8866 47.9225 97.0908 55.2793 97.0847L71.6855 97.0712C72.2063 97.0708 72.467 97.331 72.4674 97.8518L72.4859 120.313C72.4863 120.834 72.2261 121.094 71.7053 121.095L55.2992 121.303C50.6117 121.307 46.8043 122.775 43.8771 125.707C40.9498 128.64 39.4878 132.124 39.4911 136.16C39.4945 140.262 41.0599 143.776 44.1873 146.703C47.3147 149.63 51.0269 151.092 55.3237 151.089C59.6857 151.085 63.3308 150.171 66.259 148.345C69.1871 146.455 71.9838 143.035 74.649 138.084C74.909 137.563 75.559 136.358 76.5991 134.47C77.6392 132.581 78.8094 130.496 80.1096 128.217C81.3446 125.872 82.4822 123.755 83.5223 121.866C84.4973 119.977 85.0823 118.838 85.2773 118.447C88.9828 111.803 93.5358 106.558 98.9362 102.713C104.337 98.8021 110.976 96.8435 118.853 96.837C126.47 96.8308 133.308 98.5829 139.365 102.094C145.423 105.669 150.212 110.418 153.733 116.34C157.253 122.261 159.016 128.835 159.022 136.062Z" fill="#0058D1"/>
<path d="M153.57 155.695L154.422 156.219L154.424 156.214L153.57 155.695ZM139.031 169.965L139.53 170.832L139.54 170.825L139.031 169.965ZM130.222 146.632L130.899 147.368L130.907 147.361L130.222 146.632ZM130.107 125.441L130.783 124.704L130.776 124.697L130.107 125.441ZM106.088 130.637L106.937 131.166L106.947 131.149L106.957 131.132L106.088 130.637ZM103.748 134.74L104.606 135.254L104.618 135.234L104.629 135.213L103.748 134.74ZM96.8245 147.246L97.6915 147.744L97.6973 147.734L97.7028 147.724L96.8245 147.246ZM93.314 153.499L94.176 154.006L94.1838 153.992L94.1912 153.979L93.314 153.499ZM77.2142 169.821L77.6901 170.7L77.7006 170.694L77.2142 169.821ZM35.2219 169.66L34.6985 170.512L34.7026 170.514L35.2219 169.66ZM21.1476 155.414L22.0089 154.905L22.0072 154.903L21.1476 155.414ZM21.1157 116.644L20.2594 116.128L20.2553 116.135L21.1157 116.644ZM35.3618 102.472L35.8729 103.332L35.8798 103.328L35.3618 102.472ZM71.7053 121.095L71.7045 120.095L71.6926 120.095L71.7053 121.095ZM55.2992 121.303L55.3 122.304L55.3119 122.303L55.2992 121.303ZM66.259 148.345L66.788 149.194L66.7947 149.19L66.8014 149.185L66.259 148.345ZM74.649 138.084L75.5295 138.558L75.5368 138.545L75.5438 138.531L74.649 138.084ZM80.1096 128.217L80.9782 128.712L80.9866 128.697L80.9944 128.683L80.1096 128.217ZM83.5223 121.866L84.3983 122.349L84.4048 122.337L84.4109 122.325L83.5223 121.866ZM85.2773 118.447L84.404 117.96L84.3928 117.98L84.3825 118L85.2773 118.447ZM98.9362 102.713L99.5163 103.527L99.5228 103.523L98.9362 102.713ZM139.365 102.094L139.874 101.232L139.867 101.228L139.365 102.094ZM159.022 136.062L158.022 136.063C158.028 142.978 156.26 149.342 152.715 155.176L153.57 155.695L154.424 156.214C158.162 150.063 160.028 143.338 160.022 136.061L159.022 136.062ZM153.57 155.695L152.718 155.172C149.163 160.959 144.435 165.601 138.521 169.105L139.031 169.965L139.54 170.825C145.73 167.158 150.695 162.286 154.422 156.219L153.57 155.695ZM139.031 169.965L138.532 169.098C132.572 172.529 126.04 174.249 118.917 174.255L118.918 175.255L118.919 176.255C126.379 176.249 133.256 174.442 139.53 170.832L139.031 169.965ZM118.918 175.255L118.917 174.255L109.737 174.263L109.738 175.263L109.739 176.263L118.919 176.255L118.918 175.255ZM109.738 175.263L109.737 174.263C109.631 174.263 109.576 174.25 109.557 174.245C109.549 174.242 109.552 174.242 109.562 174.247C109.572 174.253 109.587 174.263 109.604 174.279C109.622 174.294 109.637 174.312 109.649 174.33C109.661 174.348 109.667 174.362 109.669 174.369C109.674 174.381 109.663 174.36 109.663 174.286L108.663 174.287L107.663 174.288C107.664 174.793 107.807 175.349 108.26 175.76C108.695 176.154 109.249 176.263 109.739 176.263L109.738 175.263ZM108.663 174.287L109.663 174.286L109.645 151.825L108.645 151.826L107.645 151.827L107.663 174.288L108.663 174.287ZM108.645 151.826L109.645 151.825C109.645 151.809 109.647 151.842 109.621 151.9C109.592 151.963 109.546 152.015 109.502 152.048C109.463 152.076 109.447 152.074 109.485 152.065C109.523 152.055 109.597 152.044 109.719 152.044L109.718 151.044L109.717 150.044C109.268 150.044 108.75 150.121 108.324 150.432C107.839 150.785 107.644 151.311 107.645 151.827L108.645 151.826ZM109.718 151.044L109.719 152.044L118.899 152.036L118.898 151.036L118.897 150.036L109.717 150.044L109.718 151.044ZM118.898 151.036L118.899 152.036C123.509 152.032 127.526 150.472 130.899 147.368L130.222 146.632L129.545 145.896C126.544 148.658 123.011 150.033 118.897 150.036L118.898 151.036ZM130.222 146.632L130.907 147.361C134.221 144.249 135.905 140.472 135.901 136.081L134.901 136.082L133.901 136.082C133.904 139.894 132.469 143.151 129.538 145.903L130.222 146.632ZM134.901 136.082L135.901 136.081C135.898 131.622 134.173 127.812 130.783 124.704L130.107 125.441L129.432 126.178C132.427 128.924 133.898 132.208 133.901 136.082L134.901 136.082ZM130.107 125.441L130.776 124.697C127.341 121.611 123.361 120.052 118.872 120.056L118.873 121.056L118.874 122.056C122.849 122.053 126.358 123.417 129.439 126.185L130.107 125.441ZM118.873 121.056L118.872 120.056C113.47 120.06 108.94 123.617 105.22 130.141L106.088 130.637L106.957 131.132C110.517 124.889 114.511 122.059 118.874 122.056L118.873 121.056ZM106.088 130.637L105.24 130.107C104.574 131.175 103.782 132.564 102.867 134.267L103.748 134.74L104.629 135.213C105.534 133.53 106.302 132.183 106.937 131.166L106.088 130.637ZM103.748 134.74L102.89 134.226C101.905 135.871 100.793 137.838 99.5531 140.126L100.432 140.602L101.312 141.079C102.542 138.807 103.64 136.866 104.606 135.254L103.748 134.74ZM100.432 140.602L99.5531 140.126C98.3183 142.405 97.116 144.619 95.9462 146.768L96.8245 147.246L97.7028 147.724C98.8732 145.574 100.076 143.359 101.312 141.079L100.432 140.602ZM96.8245 147.246L95.9575 146.748C94.7191 148.903 93.5455 150.993 92.4368 153.019L93.314 153.499L94.1912 153.979C95.2928 151.966 96.4595 149.888 97.6915 147.744L96.8245 147.246ZM93.314 153.499L92.4521 152.992C88.2379 160.156 82.9927 165.46 76.7278 168.947L77.2142 169.821L77.7006 170.694C84.3204 167.01 89.8084 161.431 94.176 154.006L93.314 153.499ZM77.2142 169.821L76.7383 168.941C70.3897 172.376 63.2652 174.106 55.3427 174.112L55.3435 175.112L55.3444 176.112C63.5677 176.105 71.0236 174.307 77.6901 170.7L77.2142 169.821ZM55.3435 175.112L55.3427 174.112C48.0931 174.118 41.5676 172.345 35.7411 168.805L35.2219 169.66L34.7026 170.514C40.8612 174.256 47.7503 176.118 55.3444 176.112L55.3435 175.112ZM35.2219 169.66L35.7452 168.808C29.9534 165.25 25.3794 160.618 22.0089 154.906L21.1476 155.414L20.2863 155.922C23.8265 161.922 28.6353 166.788 34.6985 170.512L35.2219 169.66ZM21.1476 155.414L22.0072 154.903C18.5786 149.136 16.8639 142.901 16.8583 136.179L15.8583 136.18L14.8583 136.181C14.8642 143.261 16.6756 149.848 20.288 155.925L21.1476 155.414ZM15.8583 136.18L16.8583 136.179C16.8526 129.256 18.5597 122.922 21.9761 117.154L21.1157 116.644L20.2553 116.135C16.6502 122.221 14.8523 128.91 14.8583 136.181L15.8583 136.18ZM21.1157 116.644L21.9719 117.161C25.4631 111.374 30.0935 106.768 35.8728 103.332L35.3618 102.472L34.8508 101.613C28.7869 105.218 23.9199 110.06 20.2594 116.128L21.1157 116.644ZM35.3618 102.472L35.8798 103.328C41.6354 99.8425 48.0937 98.0906 55.2801 98.0847L55.2793 97.0847L55.2784 96.0847C47.7512 96.0909 40.9312 97.9308 34.8438 101.617L35.3618 102.472ZM55.2793 97.0847L55.2801 98.0847L71.6863 98.0712L71.6855 97.0712L71.6847 96.0712L55.2784 96.0847L55.2793 97.0847ZM71.6855 97.0712L71.6863 98.0712C71.7926 98.0711 71.6886 98.0971 71.5651 97.9737C71.4415 97.8504 71.4673 97.7464 71.4674 97.8526L72.4674 97.8518L73.4674 97.851C73.4671 97.4364 73.3623 96.9419 72.9781 96.5584C72.5939 96.1748 72.0992 96.0709 71.6847 96.0712L71.6855 97.0712ZM72.4674 97.8518L71.4674 97.8526L71.4859 120.314L72.4859 120.313L73.4859 120.312L73.4674 97.851L72.4674 97.8518ZM72.4859 120.313L71.4859 120.314C71.486 120.42 71.46 120.316 71.5834 120.192C71.7068 120.069 71.8107 120.095 71.7045 120.095L71.7053 121.095L71.7061 122.095C72.1207 122.094 72.6152 121.99 72.9988 121.605C73.3823 121.221 73.4862 120.726 73.4859 120.312L72.4859 120.313ZM71.7053 121.095L71.6926 120.095L55.2865 120.304L55.2992 121.303L55.3119 122.303L71.718 122.095L71.7053 121.095ZM55.2992 121.303L55.2984 120.303C50.3836 120.308 46.3092 121.856 43.1694 125.001L43.8771 125.707L44.5847 126.414C47.2994 123.695 50.8398 122.307 55.3 122.303L55.2992 121.303ZM43.8771 125.707L43.1694 125.001C40.0603 128.115 38.4876 131.852 38.4911 136.161L39.4911 136.16L40.4911 136.159C40.488 132.396 41.8393 129.164 44.5847 126.414L43.8771 125.707ZM39.4911 136.16L38.4911 136.161C38.4948 140.553 40.1848 144.327 43.504 147.433L44.1873 146.703L44.8707 145.973C41.935 143.225 40.4943 139.971 40.4911 136.159L39.4911 136.16ZM44.1873 146.703L43.504 147.433C46.8175 150.535 50.7745 152.092 55.3246 152.089L55.3237 151.089L55.3229 150.089C51.2792 150.092 47.8119 148.726 44.8707 145.973L44.1873 146.703ZM55.3237 151.089L55.3246 152.089C59.8244 152.085 63.6644 151.141 66.788 149.194L66.259 148.345L65.73 147.497C62.9972 149.2 59.5471 150.085 55.3229 150.089L55.3237 151.089ZM66.259 148.345L66.8014 149.185C69.9328 147.164 72.8282 143.576 75.5295 138.558L74.649 138.084L73.7685 137.61C71.1394 142.493 68.4414 145.746 65.7166 147.505L66.259 148.345ZM74.649 138.084L75.5438 138.531C75.7928 138.032 76.4319 136.846 77.4751 134.952L76.5991 134.47L75.7231 133.987C74.6862 135.87 74.0251 137.095 73.7542 137.638L74.649 138.084ZM76.5991 134.47L77.4751 134.952C78.5124 133.068 79.68 130.988 80.9782 128.712L80.1096 128.217L79.241 127.721C77.9388 130.004 76.7661 132.093 75.7231 133.987L76.5991 134.47ZM80.1096 128.217L80.9944 128.683C82.2272 126.342 83.3618 124.231 84.3983 122.349L83.5223 121.866L82.6464 121.384C81.6027 123.279 80.4621 125.402 79.2248 127.751L80.1096 128.217ZM83.5223 121.866L84.4109 122.325C85.3844 120.439 85.9733 119.292 86.1721 118.893L85.2773 118.447L84.3825 118C84.1914 118.383 83.6103 119.516 82.6337 121.407L83.5223 121.866ZM85.2773 118.447L86.1507 118.934C89.7945 112.401 94.2533 107.275 99.5163 103.527L98.9362 102.713L98.3562 101.898C92.8182 105.842 88.1711 111.205 84.404 117.96L85.2773 118.447ZM98.9362 102.713L99.5228 103.523C104.724 99.7566 111.148 97.8434 118.854 97.837L118.853 96.837L118.852 95.837C110.804 95.8437 103.95 97.8476 98.3497 101.903L98.9362 102.713ZM118.853 96.837L118.854 97.837C126.311 97.8309 132.972 99.5443 138.864 102.959L139.365 102.094L139.867 101.228C133.643 97.6216 126.63 95.8306 118.852 95.837L118.853 96.837ZM139.365 102.094L138.857 102.955C144.773 106.447 149.44 111.076 152.873 116.851L153.733 116.34L154.592 115.829C150.984 109.759 146.073 104.892 139.874 101.232L139.365 102.094ZM153.733 116.34L152.873 116.851C156.297 122.61 158.017 129.006 158.022 136.063L159.022 136.062L160.022 136.061C160.016 128.664 158.209 121.912 154.592 115.829L153.733 116.34Z" fill="black" mask="url(#path-4-outside-1_2681_639)"/>
<path d="M156.643 92.9998C163.643 106 160.926 127.171 161.5 155L136.858 155C137.215 110 141 94.0958 113.858 94.9999C86.715 95.904 149.643 79.9999 156.643 92.9998Z" fill="black"/>
<path d="M67.543 155H44.8867C44.2357 155 43.9102 154.674 43.9102 154.023L44.1055 16.6211C44.1055 16.1003 44.3659 15.8398 44.8867 15.8398H67.3477C67.8685 15.8398 68.1289 16.1003 68.1289 16.6211L68.3242 154.023C68.3242 154.674 68.0638 155 67.543 155Z" fill="#DC241E"/>
<path d="M43.5 155V146C52.2354 152.508 58.2577 152.514 68.5 146.5V155H43.5Z" fill="#0058D1"/>
</g>
<rect x="1.25" y="1.25" width="180.5" height="188.5" rx="53.75" stroke="black" stroke-width="2.5"/>
<defs>
<linearGradient id="paint0_linear_2681_639" x1="91.5" y1="0" x2="91.5" y2="191" gradientUnits="userSpaceOnUse">
<stop offset="0.081584" stop-color="white"/>
<stop offset="1" stop-color="#524E4E"/>
</linearGradient>
<clipPath id="clip0_2681_639">
<rect width="183" height="191" rx="55" fill="white"/>
</clipPath>
</defs>
</svg>
