<svg width="512" height="512" viewBox="0 0 512 512" fill="none" xmlns="http://www.w3.org/2000/svg">
  <rect x="2.5" y="4.5" width="505" height="505" rx="58.5" fill="#DC241E" stroke="black" stroke-width="5"/>
  <path d="M170.271 21V469.13C170.271 474.726 166.69 479.694 161.382 481.463L155.271 483.5C148.691 486.449 145.174 488.625 139.271 493.5C135.017 496.513 132.769 498.502 129.188 502.081C128.911 502.358 128.676 502.675 128.491 503.02C127.035 505.723 128.993 509 132.062 509H255.771H256.271H379.979C383.048 509 385.006 505.723 383.551 503.02C383.365 502.675 383.13 502.358 382.853 502.081C379.272 498.502 377.024 496.513 372.771 493.5C366.867 488.625 363.35 486.449 356.771 483.5L350.66 481.463C345.351 479.694 341.771 474.726 341.771 469.13V21C341.771 13.8203 335.95 8 328.771 8H256.771H255.271H183.271C176.091 8 170.271 13.8203 170.271 21Z" fill="white"/>
  <path d="M256.771 8H183.271C176.091 8 170.271 13.8203 170.271 21V469.13C170.271 474.726 166.69 479.694 161.382 481.463L155.271 483.5C148.691 486.449 145.174 488.625 139.271 493.5C135.017 496.513 132.769 498.502 129.188 502.081C128.911 502.358 128.676 502.675 128.491 503.02C127.035 505.723 128.993 509 132.062 509H256.271M255.271 8H328.771C335.95 8 341.771 13.8203 341.771 21V469.13C341.771 474.726 345.351 479.694 350.66 481.463L356.771 483.5C363.35 486.449 366.867 488.625 372.771 493.5C377.024 496.513 379.272 498.502 382.853 502.081C383.13 502.358 383.365 502.675 383.551 503.02C385.006 505.723 383.048 509 379.979 509H255.771" stroke="black" stroke-width="6" fill="none"/>
  <path d="M310 314.5H203.5C199.082 314.5 195.5 310.918 195.5 306.5V36.5C195.5 32.0817 199.082 28.5 203.5 28.5H310C314.418 28.5 318 32.0817 318 36.5V306.5C318 310.918 314.418 314.5 310 314.5Z" fill="#D1EFFD" stroke="black" stroke-width="6"/>
  <path d="M284.5 360.5V346.5C284.5 343.186 287.186 340.5 290.5 340.5H310C313.314 340.5 316 343.186 316 346.5V360.5C316 363.814 313.314 366.5 310 366.5H290.5C287.186 366.5 284.5 363.814 284.5 360.5Z" fill="#010101" stroke="black" stroke-width="6"/>
</svg>
