<svg width="194" height="203" viewBox="0 0 194 203" fill="none" xmlns="http://www.w3.org/2000/svg">
<g clip-path="url(#clip0_2681_631)">
<rect width="194" height="203" rx="55" fill="url(#paint0_linear_2681_631)"/>
<path d="M106.348 160H83.6914C83.1706 160 82.9102 159.674 82.9102 159.023L83.3008 21.6211C83.3008 21.1003 83.5612 20.8398 84.082 20.8398H124.512C131.738 20.8398 138.379 22.5977 144.434 26.1133C150.488 29.6289 155.306 34.349 158.887 40.2734C162.533 46.1979 164.355 52.9036 164.355 60.3906C164.355 65.2734 163.607 69.7005 162.109 73.6719C160.612 77.6432 158.854 80.9961 156.836 83.7305C154.883 86.4648 153.092 88.4831 151.465 89.7852C158.691 97.793 162.305 107.201 162.305 118.008L162.5 159.023C162.5 159.674 162.174 160 161.523 160H138.867C138.346 160 138.086 159.805 138.086 159.414V118.008C138.086 113.19 136.393 109.023 133.008 105.508C129.622 101.992 125.456 100.234 120.508 100.234H107.324L107.129 159.023C107.129 159.674 106.868 160 106.348 160ZM124.512 44.7656H107.324V76.2109H124.512C128.613 76.2109 132.259 74.681 135.449 71.6211C138.704 68.5612 140.332 64.8177 140.332 60.3906C140.332 56.1589 138.77 52.513 135.645 49.4531C132.52 46.3281 128.809 44.7656 124.512 44.7656Z" fill="black"/>
<mask id="path-4-outside-1_2681_631" maskUnits="userSpaceOnUse" x="23.0354" y="99.9554" width="146.068" height="82.1203" fill="black">
<rect fill="white" x="23.0354" y="99.9554" width="146.068" height="82.1203"/>
<path d="M168.022 141.062C168.028 148.158 166.211 154.703 162.57 160.695C158.929 166.623 154.082 171.379 148.031 174.965C141.914 178.486 135.21 180.249 127.918 180.255L118.738 180.263C118.022 180.263 117.664 179.938 117.663 179.287L117.645 156.826C117.644 156.305 118.002 156.044 118.718 156.044L127.898 156.036C132.26 156.033 136.035 154.565 139.222 151.632C142.345 148.7 143.905 145.183 143.901 141.082C143.898 136.915 142.3 133.368 139.107 130.441C135.85 127.514 132.105 126.052 127.873 126.056C122.99 126.06 118.729 129.253 115.088 135.637C114.438 136.679 113.658 138.047 112.748 139.74C111.773 141.369 110.667 143.323 109.432 145.602C108.197 147.882 106.995 150.096 105.825 152.246C104.589 154.395 103.419 156.48 102.314 158.499C98.0232 165.794 92.6565 171.235 86.2142 174.821C79.7067 178.342 72.4165 180.105 64.3435 180.112C56.9217 180.118 50.2144 178.301 44.2219 174.66C38.2944 171.019 33.603 166.27 30.1476 160.414C26.6271 154.492 24.864 148.081 24.8583 141.18C24.8525 134.083 26.6049 127.572 30.1157 121.644C33.6915 115.717 38.4402 110.993 44.3618 107.472C50.2833 103.887 56.9225 102.091 64.2793 102.085L80.6855 102.071C81.2063 102.071 81.467 102.331 81.4674 102.852L81.4859 125.313C81.4863 125.834 81.2261 126.094 80.7053 126.095L64.2992 126.303C59.6117 126.307 55.8043 127.775 52.8771 130.707C49.9498 133.64 48.4878 137.124 48.4911 141.16C48.4945 145.262 50.0599 148.776 53.1873 151.703C56.3147 154.63 60.0269 156.092 64.3237 156.089C68.6857 156.085 72.3308 155.171 75.259 153.345C78.1871 151.455 80.9838 148.035 83.649 143.084C83.909 142.563 84.559 141.358 85.5991 139.47C86.6392 137.581 87.8094 135.496 89.1096 133.217C90.3446 130.872 91.4822 128.755 92.5223 126.866C93.4973 124.977 94.0823 123.838 94.2773 123.447C97.9828 116.803 102.536 111.558 107.936 107.713C113.337 103.802 119.976 101.844 127.853 101.837C135.47 101.831 142.308 103.583 148.365 107.094C154.423 110.669 159.212 115.418 162.733 121.34C166.253 127.261 168.016 133.835 168.022 141.062Z"/>
</mask>
<path d="M168.022 141.062C168.028 148.158 166.211 154.703 162.57 160.695C158.929 166.623 154.082 171.379 148.031 174.965C141.914 178.486 135.21 180.249 127.918 180.255L118.738 180.263C118.022 180.263 117.664 179.938 117.663 179.287L117.645 156.826C117.644 156.305 118.002 156.044 118.718 156.044L127.898 156.036C132.26 156.033 136.035 154.565 139.222 151.632C142.345 148.7 143.905 145.183 143.901 141.082C143.898 136.915 142.3 133.368 139.107 130.441C135.85 127.514 132.105 126.052 127.873 126.056C122.99 126.06 118.729 129.253 115.088 135.637C114.438 136.679 113.658 138.047 112.748 139.74C111.773 141.369 110.667 143.323 109.432 145.602C108.197 147.882 106.995 150.096 105.825 152.246C104.589 154.395 103.419 156.48 102.314 158.499C98.0232 165.794 92.6565 171.235 86.2142 174.821C79.7067 178.342 72.4165 180.105 64.3435 180.112C56.9217 180.118 50.2144 178.301 44.2219 174.66C38.2944 171.019 33.603 166.27 30.1476 160.414C26.6271 154.492 24.864 148.081 24.8583 141.18C24.8525 134.083 26.6049 127.572 30.1157 121.644C33.6915 115.717 38.4402 110.993 44.3618 107.472C50.2833 103.887 56.9225 102.091 64.2793 102.085L80.6855 102.071C81.2063 102.071 81.467 102.331 81.4674 102.852L81.4859 125.313C81.4863 125.834 81.2261 126.094 80.7053 126.095L64.2992 126.303C59.6117 126.307 55.8043 127.775 52.8771 130.707C49.9498 133.64 48.4878 137.124 48.4911 141.16C48.4945 145.262 50.0599 148.776 53.1873 151.703C56.3147 154.63 60.0269 156.092 64.3237 156.089C68.6857 156.085 72.3308 155.171 75.259 153.345C78.1871 151.455 80.9838 148.035 83.649 143.084C83.909 142.563 84.559 141.358 85.5991 139.47C86.6392 137.581 87.8094 135.496 89.1096 133.217C90.3446 130.872 91.4822 128.755 92.5223 126.866C93.4973 124.977 94.0823 123.838 94.2773 123.447C97.9828 116.803 102.536 111.558 107.936 107.713C113.337 103.802 119.976 101.844 127.853 101.837C135.47 101.831 142.308 103.583 148.365 107.094C154.423 110.669 159.212 115.418 162.733 121.34C166.253 127.261 168.016 133.835 168.022 141.062Z" fill="#0058D1"/>
<path d="M162.57 160.695L163.422 161.219L163.424 161.214L162.57 160.695ZM148.031 174.965L148.53 175.832L148.54 175.825L148.031 174.965ZM139.222 151.632L139.899 152.368L139.907 152.361L139.222 151.632ZM139.107 130.441L139.783 129.704L139.776 129.697L139.107 130.441ZM115.088 135.637L115.937 136.166L115.947 136.149L115.957 136.132L115.088 135.637ZM112.748 139.74L113.606 140.254L113.618 140.234L113.629 140.213L112.748 139.74ZM105.825 152.246L106.692 152.744L106.697 152.734L106.703 152.724L105.825 152.246ZM102.314 158.499L103.176 159.006L103.184 158.992L103.191 158.979L102.314 158.499ZM86.2142 174.821L86.6901 175.7L86.7006 175.694L86.2142 174.821ZM44.2219 174.66L43.6985 175.512L43.7026 175.514L44.2219 174.66ZM30.1476 160.414L31.0089 159.905L31.0072 159.903L30.1476 160.414ZM30.1157 121.644L29.2594 121.128L29.2553 121.135L30.1157 121.644ZM44.3618 107.472L44.8729 108.332L44.8798 108.328L44.3618 107.472ZM80.7053 126.095L80.7045 125.095L80.6926 125.095L80.7053 126.095ZM64.2992 126.303L64.3 127.304L64.3119 127.303L64.2992 126.303ZM75.259 153.345L75.788 154.194L75.7947 154.19L75.8014 154.185L75.259 153.345ZM83.649 143.084L84.5295 143.558L84.5368 143.545L84.5438 143.531L83.649 143.084ZM89.1096 133.217L89.9782 133.712L89.9866 133.697L89.9944 133.683L89.1096 133.217ZM92.5223 126.866L93.3983 127.349L93.4048 127.337L93.4109 127.325L92.5223 126.866ZM94.2773 123.447L93.404 122.96L93.3928 122.98L93.3825 123L94.2773 123.447ZM107.936 107.713L108.516 108.527L108.523 108.523L107.936 107.713ZM148.365 107.094L148.874 106.232L148.867 106.228L148.365 107.094ZM168.022 141.062L167.022 141.063C167.028 147.978 165.26 154.342 161.715 160.176L162.57 160.695L163.424 161.214C167.162 155.063 169.028 148.338 169.022 141.061L168.022 141.062ZM162.57 160.695L161.718 160.172C158.163 165.959 153.435 170.601 147.521 174.105L148.031 174.965L148.54 175.825C154.73 172.158 159.695 167.286 163.422 161.219L162.57 160.695ZM148.031 174.965L147.532 174.098C141.572 177.529 135.04 179.249 127.917 179.255L127.918 180.255L127.919 181.255C135.379 181.249 142.256 179.442 148.53 175.832L148.031 174.965ZM127.918 180.255L127.917 179.255L118.737 179.263L118.738 180.263L118.739 181.263L127.919 181.255L127.918 180.255ZM118.738 180.263L118.737 179.263C118.631 179.263 118.576 179.25 118.557 179.245C118.549 179.242 118.552 179.242 118.562 179.247C118.572 179.253 118.587 179.263 118.604 179.279C118.622 179.294 118.637 179.312 118.649 179.33C118.661 179.348 118.667 179.362 118.669 179.369C118.674 179.381 118.663 179.36 118.663 179.286L117.663 179.287L116.663 179.288C116.664 179.793 116.807 180.349 117.26 180.76C117.695 181.154 118.249 181.263 118.739 181.263L118.738 180.263ZM117.663 179.287L118.663 179.286L118.645 156.825L117.645 156.826L116.645 156.827L116.663 179.288L117.663 179.287ZM117.645 156.826L118.645 156.825C118.645 156.809 118.647 156.842 118.621 156.9C118.592 156.963 118.546 157.015 118.502 157.048C118.463 157.076 118.447 157.074 118.485 157.065C118.523 157.055 118.597 157.044 118.719 157.044L118.718 156.044L118.717 155.044C118.268 155.044 117.75 155.121 117.324 155.432C116.839 155.785 116.644 156.311 116.645 156.827L117.645 156.826ZM118.718 156.044L118.719 157.044L127.899 157.036L127.898 156.036L127.897 155.036L118.717 155.044L118.718 156.044ZM127.898 156.036L127.899 157.036C132.509 157.032 136.526 155.472 139.899 152.368L139.222 151.632L138.545 150.896C135.544 153.658 132.011 155.033 127.897 155.036L127.898 156.036ZM139.222 151.632L139.907 152.361C143.221 149.249 144.905 145.472 144.901 141.081L143.901 141.082L142.901 141.082C142.904 144.894 141.469 148.151 138.538 150.903L139.222 151.632ZM143.901 141.082L144.901 141.081C144.898 136.622 143.173 132.812 139.783 129.704L139.107 130.441L138.432 131.178C141.427 133.924 142.898 137.208 142.901 141.082L143.901 141.082ZM139.107 130.441L139.776 129.697C136.341 126.611 132.361 125.052 127.872 125.056L127.873 126.056L127.874 127.056C131.849 127.053 135.358 128.417 138.439 131.185L139.107 130.441ZM127.873 126.056L127.872 125.056C122.47 125.06 117.94 128.617 114.22 135.141L115.088 135.637L115.957 136.132C119.517 129.889 123.511 127.059 127.874 127.056L127.873 126.056ZM115.088 135.637L114.24 135.107C113.574 136.175 112.782 137.564 111.867 139.267L112.748 139.74L113.629 140.213C114.534 138.53 115.302 137.183 115.937 136.166L115.088 135.637ZM112.748 139.74L111.89 139.226C110.905 140.871 109.793 142.838 108.553 145.126L109.432 145.602L110.312 146.079C111.542 143.807 112.64 141.866 113.606 140.254L112.748 139.74ZM109.432 145.602L108.553 145.126C107.318 147.405 106.116 149.619 104.946 151.768L105.825 152.246L106.703 152.724C107.873 150.574 109.076 148.359 110.312 146.079L109.432 145.602ZM105.825 152.246L104.957 151.748C103.719 153.903 102.545 155.993 101.437 158.019L102.314 158.499L103.191 158.979C104.293 156.966 105.46 154.888 106.692 152.744L105.825 152.246ZM102.314 158.499L101.452 157.992C97.2379 165.156 91.9927 170.46 85.7278 173.947L86.2142 174.821L86.7006 175.694C93.3204 172.01 98.8084 166.431 103.176 159.006L102.314 158.499ZM86.2142 174.821L85.7383 173.941C79.3897 177.376 72.2652 179.106 64.3427 179.112L64.3435 180.112L64.3444 181.112C72.5677 181.105 80.0236 179.307 86.6901 175.7L86.2142 174.821ZM64.3435 180.112L64.3427 179.112C57.0931 179.118 50.5676 177.345 44.7411 173.805L44.2219 174.66L43.7026 175.514C49.8612 179.256 56.7503 181.118 64.3444 181.112L64.3435 180.112ZM44.2219 174.66L44.7452 173.808C38.9534 170.25 34.3794 165.618 31.0089 159.906L30.1476 160.414L29.2863 160.922C32.8265 166.922 37.6353 171.788 43.6985 175.512L44.2219 174.66ZM30.1476 160.414L31.0072 159.903C27.5786 154.136 25.8639 147.901 25.8583 141.179L24.8583 141.18L23.8583 141.181C23.8642 148.261 25.6756 154.848 29.288 160.925L30.1476 160.414ZM24.8583 141.18L25.8583 141.179C25.8526 134.256 27.5597 127.922 30.9761 122.154L30.1157 121.644L29.2553 121.135C25.6502 127.221 23.8523 133.91 23.8583 141.181L24.8583 141.18ZM30.1157 121.644L30.9719 122.161C34.4631 116.374 39.0935 111.768 44.8728 108.332L44.3618 107.472L43.8508 106.613C37.7869 110.218 32.9199 115.06 29.2594 121.128L30.1157 121.644ZM44.3618 107.472L44.8798 108.328C50.6354 104.842 57.0937 103.091 64.2801 103.085L64.2793 102.085L64.2784 101.085C56.7512 101.091 49.9312 102.931 43.8438 106.617L44.3618 107.472ZM64.2793 102.085L64.2801 103.085L80.6863 103.071L80.6855 102.071L80.6847 101.071L64.2784 101.085L64.2793 102.085ZM80.6855 102.071L80.6863 103.071C80.7926 103.071 80.6886 103.097 80.5651 102.974C80.4415 102.85 80.4673 102.746 80.4674 102.853L81.4674 102.852L82.4674 102.851C82.4671 102.436 82.3623 101.942 81.9781 101.558C81.5939 101.175 81.0992 101.071 80.6847 101.071L80.6855 102.071ZM81.4674 102.852L80.4674 102.853L80.4859 125.314L81.4859 125.313L82.4859 125.312L82.4674 102.851L81.4674 102.852ZM81.4859 125.313L80.4859 125.314C80.486 125.42 80.46 125.316 80.5834 125.192C80.7068 125.069 80.8107 125.095 80.7045 125.095L80.7053 126.095L80.7061 127.095C81.1207 127.094 81.6152 126.99 81.9988 126.605C82.3823 126.221 82.4862 125.726 82.4859 125.312L81.4859 125.313ZM80.7053 126.095L80.6926 125.095L64.2865 125.304L64.2992 126.303L64.3119 127.303L80.718 127.095L80.7053 126.095ZM64.2992 126.303L64.2984 125.303C59.3836 125.308 55.3092 126.856 52.1694 130.001L52.8771 130.707L53.5847 131.414C56.2994 128.695 59.8398 127.307 64.3 127.303L64.2992 126.303ZM52.8771 130.707L52.1694 130.001C49.0603 133.115 47.4876 136.852 47.4911 141.161L48.4911 141.16L49.4911 141.159C49.488 137.396 50.8393 134.164 53.5847 131.414L52.8771 130.707ZM48.4911 141.16L47.4911 141.161C47.4948 145.553 49.1848 149.327 52.504 152.433L53.1873 151.703L53.8707 150.973C50.935 148.225 49.4943 144.971 49.4911 141.159L48.4911 141.16ZM53.1873 151.703L52.504 152.433C55.8175 155.535 59.7745 157.092 64.3246 157.089L64.3237 156.089L64.3229 155.089C60.2792 155.092 56.8119 153.726 53.8707 150.973L53.1873 151.703ZM64.3237 156.089L64.3246 157.089C68.8244 157.085 72.6644 156.141 75.788 154.194L75.259 153.345L74.73 152.497C71.9972 154.2 68.5471 155.085 64.3229 155.089L64.3237 156.089ZM75.259 153.345L75.8014 154.185C78.9328 152.164 81.8282 148.576 84.5295 143.558L83.649 143.084L82.7685 142.61C80.1394 147.493 77.4414 150.746 74.7166 152.505L75.259 153.345ZM83.649 143.084L84.5438 143.531C84.7928 143.032 85.4319 141.846 86.4751 139.952L85.5991 139.47L84.7231 138.987C83.6862 140.87 83.0251 142.095 82.7542 142.638L83.649 143.084ZM85.5991 139.47L86.4751 139.952C87.5124 138.068 88.68 135.988 89.9782 133.712L89.1096 133.217L88.241 132.721C86.9388 135.004 85.7661 137.093 84.7231 138.987L85.5991 139.47ZM89.1096 133.217L89.9944 133.683C91.2272 131.342 92.3618 129.231 93.3983 127.349L92.5223 126.866L91.6464 126.384C90.6027 128.279 89.4621 130.402 88.2248 132.751L89.1096 133.217ZM92.5223 126.866L93.4109 127.325C94.3844 125.439 94.9733 124.292 95.1721 123.893L94.2773 123.447L93.3825 123C93.1914 123.383 92.6103 124.516 91.6337 126.407L92.5223 126.866ZM94.2773 123.447L95.1507 123.934C98.7945 117.401 103.253 112.275 108.516 108.527L107.936 107.713L107.356 106.898C101.818 110.842 97.1711 116.205 93.404 122.96L94.2773 123.447ZM107.936 107.713L108.523 108.523C113.724 104.757 120.148 102.843 127.854 102.837L127.853 101.837L127.852 100.837C119.804 100.844 112.95 102.848 107.35 106.903L107.936 107.713ZM127.853 101.837L127.854 102.837C135.311 102.831 141.972 104.544 147.864 107.959L148.365 107.094L148.867 106.228C142.643 102.622 135.63 100.831 127.852 100.837L127.853 101.837ZM148.365 107.094L147.857 107.955C153.773 111.447 158.44 116.076 161.873 121.851L162.733 121.34L163.592 120.829C159.984 114.759 155.073 109.892 148.874 106.232L148.365 107.094ZM162.733 121.34L161.873 121.851C165.297 127.61 167.017 134.006 167.022 141.063L168.022 141.062L169.022 141.061C169.016 133.664 167.209 126.912 163.592 120.829L162.733 121.34Z" fill="black" mask="url(#path-4-outside-1_2681_631)"/>
<path d="M157.643 97.9998C164.643 111 161.926 132.171 162.5 160L137.858 160C138.215 115 142 99.0958 114.858 99.9999C87.715 100.904 150.643 84.9999 157.643 97.9998Z" fill="black"/>
<path d="M76.543 160H53.8867C53.2357 160 52.9102 159.674 52.9102 159.023L53.1055 21.6211C53.1055 21.1003 53.3659 20.8398 53.8867 20.8398H76.3477C76.8685 20.8398 77.1289 21.1003 77.1289 21.6211L77.3242 159.023C77.3242 159.674 77.0638 160 76.543 160Z" fill="#DC241E"/>
<path d="M52.5 160V151C61.2354 157.508 67.2577 157.514 77.5 151.5V160H52.5Z" fill="#0058D1"/>
</g>
<rect x="1.25" y="1.25" width="191.5" height="200.5" rx="53.75" stroke="black" stroke-width="2.5"/>
<defs>
<linearGradient id="paint0_linear_2681_631" x1="97" y1="0" x2="97" y2="203" gradientUnits="userSpaceOnUse">
<stop offset="0.081584" stop-color="white"/>
<stop offset="1" stop-color="#524E4E"/>
</linearGradient>
<clipPath id="clip0_2681_631">
<rect width="194" height="203" rx="55" fill="white"/>
</clipPath>
</defs>
</svg>
