<svg width="180" height="188" viewBox="0 0 180 188" fill="none" xmlns="http://www.w3.org/2000/svg">
<g clip-path="url(#clip0_2678_625)">
<path d="M99.3477 153H76.6914C76.1706 153 75.9102 152.674 75.9102 152.023L76.3008 14.6211C76.3008 14.1003 76.5612 13.8398 77.082 13.8398H117.512C124.738 13.8398 131.379 15.5977 137.434 19.1133C143.488 22.6289 148.306 27.349 151.887 33.2734C155.533 39.1979 157.355 45.9036 157.355 53.3906C157.355 58.2734 156.607 62.7005 155.109 66.6719C153.612 70.6432 151.854 73.9961 149.836 76.7305C147.883 79.4648 146.092 81.4831 144.465 82.7852C151.691 90.793 155.305 100.201 155.305 111.008L155.5 152.023C155.5 152.674 155.174 153 154.523 153H131.867C131.346 153 131.086 152.805 131.086 152.414V111.008C131.086 106.19 129.393 102.023 126.008 98.5078C122.622 94.9922 118.456 93.2344 113.508 93.2344H100.324L100.129 152.023C100.129 152.674 99.8685 153 99.3477 153ZM117.512 37.7656H100.324V69.2109H117.512C121.613 69.2109 125.259 67.681 128.449 64.6211C131.704 61.5612 133.332 57.8177 133.332 53.3906C133.332 49.1589 131.77 45.513 128.645 42.4531C125.52 39.3281 121.809 37.7656 117.512 37.7656Z" fill="black"/>
<path d="M161.022 134.062C161.028 141.158 159.211 147.703 155.57 153.695C151.929 159.623 147.083 164.379 141.031 167.965C134.914 171.486 128.21 173.249 120.918 173.255L111.738 173.263C111.022 173.263 110.664 172.938 110.663 172.287L110.645 149.826C110.644 149.305 111.002 149.044 111.718 149.044L120.898 149.036C125.26 149.033 129.035 147.565 132.223 144.632C135.345 141.7 136.905 138.183 136.901 134.082C136.898 129.915 135.3 126.368 132.107 123.441C128.85 120.514 125.105 119.052 120.873 119.056C115.99 119.06 111.729 122.253 108.088 128.637C107.438 129.679 106.658 131.047 105.748 132.74C104.773 134.369 103.667 136.323 102.432 138.602C101.197 140.882 99.9947 143.096 98.8246 145.246C97.5894 147.395 96.4192 149.48 95.3141 151.499C91.0232 158.794 85.6566 164.235 79.2143 167.821C72.7067 171.342 65.4165 173.105 57.3436 173.112C49.9217 173.118 43.2145 171.301 37.2219 167.66C31.2944 164.019 26.603 159.27 23.1477 153.414C19.6272 147.492 17.8641 141.081 17.8584 134.18C17.8525 127.083 19.605 120.572 23.1157 114.644C26.6916 108.717 31.4403 103.993 37.3619 100.472C43.2834 96.8866 49.9225 95.0908 57.2793 95.0847L73.6856 95.0712C74.2064 95.0708 74.467 95.331 74.4675 95.8518L74.486 118.313C74.4864 118.834 74.2262 119.094 73.7054 119.095L57.2993 119.303C52.6118 119.307 48.8044 120.775 45.8771 123.707C42.9498 126.64 41.4879 130.124 41.4912 134.16C41.4946 138.262 43.06 141.776 46.1874 144.703C49.3148 147.63 53.0269 149.092 57.3238 149.089C61.6858 149.085 65.3309 148.171 68.2591 146.345C71.1872 144.455 73.9838 141.035 76.649 136.084C76.909 135.563 77.5591 134.358 78.5992 132.47C79.6393 130.581 80.8095 128.496 82.1097 126.217C83.3447 123.872 84.4823 121.755 85.5224 119.866C86.4974 117.977 87.0824 116.838 87.2774 116.447C90.9829 109.803 95.5358 104.558 100.936 100.713C106.337 96.8021 112.976 94.8435 120.853 94.837C128.471 94.8308 135.308 96.5829 141.366 100.094C147.423 103.669 152.212 108.418 155.733 114.34C159.253 120.261 161.016 126.835 161.022 134.062Z" fill="#0058D1"/>
<path d="M150.642 90.9998C157.643 104 154.926 125.171 155.5 153L130.857 153C131.215 108 135 92.0958 107.857 92.9999C80.7149 93.904 143.642 77.9999 150.642 90.9998Z" fill="black"/>
<path d="M69.543 153H46.8867C46.2357 153 45.9102 152.674 45.9102 152.023L46.1055 14.6211C46.1055 14.1003 46.3659 13.8398 46.8867 13.8398H69.3477C69.8685 13.8398 70.1289 14.1003 70.1289 14.6211L70.3242 152.023C70.3242 152.674 70.0638 153 69.543 153Z" fill="#DC241E"/>
<path d="M45.5 153V144C54.2354 150.508 60.2577 150.514 70.5 144.5V153H45.5Z" fill="#0058D1"/>
</g>
<defs>
<clipPath id="clip0_2678_625">
<rect width="180" height="188" fill="white"/>
</clipPath>
</defs>
</svg>
