<svg width="217" height="217" viewBox="0 0 217 217" fill="none" xmlns="http://www.w3.org/2000/svg">
<rect x="128" y="76" width="51" height="140" fill="white"/>
<rect x="138" y="91" width="31" height="78" fill="#00AEFF" fill-opacity="0.19"/>
<path d="M137 169V91H169V169H137Z" stroke="black" stroke-width="2"/>
<path d="M127.5 216H179" stroke="black" stroke-width="2"/>
<path d="M126.911 216C129.673 216 131.911 213.761 131.911 211V88.5527C131.911 85.7913 134.15 83.5527 136.911 83.5527H168.956C171.717 83.5527 173.956 85.7913 173.956 88.5527V211C173.956 213.761 176.194 216 178.956 216H211C213.761 216 216 213.761 216 211V6C216 3.23858 213.761 1 211 1H6C3.23858 1 1 3.23858 1 6L1 211C1 213.761 3.23858 216 6 216H126.911Z" fill="#DC241E" stroke="black" stroke-width="2"/>
<path d="M163.5 176V173.5H167V176H163.5Z" stroke="black"/>
<line x1="145.752" y1="104.566" x2="152.752" y2="100.566" stroke="black" stroke-opacity="0.16"/>
<line x1="144.763" y1="109.56" x2="157.763" y2="102.56" stroke="black" stroke-opacity="0.16"/>
<line x1="143.749" y1="115.567" x2="162.749" y2="104.567" stroke="black" stroke-opacity="0.16"/>
<line x1="143.768" y1="120.557" x2="164.768" y2="109.557" stroke="black" stroke-opacity="0.16"/>
<line x1="144.776" y1="124.553" x2="164.776" y2="114.553" stroke="black" stroke-opacity="0.16"/>
<line x1="143.789" y1="129.547" x2="158.789" y2="122.547" stroke="black" stroke-opacity="0.16"/>
<line x1="150.776" y1="130.553" x2="158.776" y2="126.553" stroke="black" stroke-opacity="0.16"/>
<line x1="156.776" y1="131.553" x2="158.776" y2="130.553" stroke="black" stroke-opacity="0.16"/>
<path d="M152.94 197.2C152.287 197.2 151.707 197.133 151.2 197C150.707 196.867 150.293 196.673 149.96 196.42C149.627 196.167 149.373 195.867 149.2 195.52C149.04 195.173 148.96 194.793 148.96 194.38C148.96 194.113 149.013 193.88 149.12 193.68C149.24 193.48 149.407 193.327 149.62 193.22C149.833 193.1 150.093 193.04 150.4 193.04C150.427 193.587 150.533 194.107 150.72 194.6C150.907 195.08 151.193 195.473 151.58 195.78C151.967 196.073 152.473 196.22 153.1 196.22C153.993 196.22 154.693 196.007 155.2 195.58C155.707 195.14 155.96 194.513 155.96 193.7C155.96 193.207 155.86 192.793 155.66 192.46C155.473 192.113 155.153 191.793 154.7 191.5C154.26 191.207 153.647 190.9 152.86 190.58C152.033 190.233 151.347 189.86 150.8 189.46C150.253 189.06 149.847 188.593 149.58 188.06C149.313 187.513 149.18 186.873 149.18 186.14C149.18 185.38 149.367 184.733 149.74 184.2C150.127 183.653 150.647 183.24 151.3 182.96C151.967 182.667 152.72 182.52 153.56 182.52C154.36 182.52 155.033 182.627 155.58 182.84C156.14 183.053 156.567 183.333 156.86 183.68C157.153 184.013 157.3 184.373 157.3 184.76C157.3 185.187 157.153 185.513 156.86 185.74C156.58 185.953 156.2 186.06 155.72 186.06C155.72 185.647 155.647 185.247 155.5 184.86C155.367 184.473 155.133 184.153 154.8 183.9C154.48 183.647 154.04 183.52 153.48 183.52C152.707 183.52 152.107 183.727 151.68 184.14C151.253 184.553 151.04 185.107 151.04 185.8C151.04 186.333 151.133 186.787 151.32 187.16C151.52 187.52 151.847 187.847 152.3 188.14C152.753 188.42 153.367 188.72 154.14 189.04C154.927 189.36 155.593 189.713 156.14 190.1C156.7 190.473 157.127 190.907 157.42 191.4C157.713 191.893 157.86 192.487 157.86 193.18C157.86 194.033 157.66 194.76 157.26 195.36C156.86 195.947 156.287 196.4 155.54 196.72C154.807 197.04 153.94 197.2 152.94 197.2Z" fill="#0004FF"/>
</svg>
