<svg width="194" height="203" viewBox="0 0 194 203" fill="none" xmlns="http://www.w3.org/2000/svg">
<g clip-path="url(#clip0_2681_631)">
<rect width="194" height="203" rx="55" fill="url(#paint0_linear_2681_631)"/>
<path d="M106.348 160H83.6914C83.1706 160 82.9102 159.674 82.9102 159.023L83.3008 21.6211C83.3008 21.1003 83.5612 20.8398 84.082 20.8398H124.512C131.738 20.8398 138.379 22.5977 144.434 26.1133C150.488 29.6289 155.306 34.349 158.887 40.2734C162.533 46.1979 164.355 52.9036 164.355 60.3906C164.355 65.2734 163.607 69.7005 162.109 73.6719C160.612 77.6432 158.854 80.9961 156.836 83.7305C154.883 86.4648 153.092 88.4831 151.465 89.7852C158.691 97.793 162.305 107.201 162.305 118.008L162.5 159.023C162.5 159.674 162.174 160 161.523 160H138.867C138.346 160 138.086 159.805 138.086 159.414V118.008C138.086 113.19 136.393 109.023 133.008 105.508C129.622 101.992 125.456 100.234 120.508 100.234H107.324L107.129 159.023C107.129 159.674 106.868 160 106.348 160ZM124.512 44.7656H107.324V76.2109H124.512C128.613 76.2109 132.259 74.681 135.449 71.6211C138.704 68.5612 140.332 64.8177 140.332 60.3906C140.332 56.1589 138.77 52.513 135.645 49.4531C132.52 46.3281 128.809 44.7656 124.512 44.7656Z" fill="black"/>
<path d="M168.022 141.062C168.028 148.158 166.211 154.703 162.57 160.695C158.929 166.623 154.082 171.379 148.031 174.965C141.914 178.486 135.21 180.249 127.918 180.255L118.738 180.263C118.022 180.263 117.664 179.938 117.663 179.287L117.645 156.826C117.644 156.305 118.002 156.044 118.718 156.044L127.898 156.036C132.26 156.033 136.035 154.565 139.222 151.632C142.345 148.7 143.905 145.183 143.901 141.082C143.898 136.915 142.3 133.368 139.107 130.441C135.85 127.514 132.105 126.052 127.873 126.056C122.99 126.06 118.729 129.253 115.088 135.637C114.438 136.679 113.658 138.047 112.748 139.74C111.773 141.369 110.667 143.323 109.432 145.602C108.197 147.882 106.995 150.096 105.825 152.246C104.589 154.395 103.419 156.48 102.314 158.499C98.0232 165.794 92.6565 171.235 86.2142 174.821C79.7067 178.342 72.4165 180.105 64.3435 180.112C56.9217 180.118 50.2144 178.301 44.2219 174.66C38.2944 171.019 33.603 166.27 30.1476 160.414C26.6271 154.492 24.864 148.081 24.8583 141.18C24.8525 134.083 26.6049 127.572 30.1157 121.644C33.6915 115.717 38.4402 110.993 44.3618 107.472C50.2833 103.887 56.9225 102.091 64.2793 102.085L80.6855 102.071C81.2063 102.071 81.467 102.331 81.4674 102.852L81.4859 125.313C81.4863 125.834 81.2261 126.094 80.7053 126.095L64.2992 126.303C59.6117 126.307 55.8043 127.775 52.8771 130.707C49.9498 133.64 48.4878 137.124 48.4911 141.16C48.4945 145.262 50.0599 148.776 53.1873 151.703C56.3147 154.63 60.0269 156.092 64.3237 156.089C68.6857 156.085 72.3308 155.171 75.259 153.345C78.1871 151.455 80.9838 148.035 83.649 143.084C83.909 142.563 84.559 141.358 85.5991 139.47C86.6392 137.581 87.8094 135.496 89.1096 133.217C90.3446 130.872 91.4822 128.755 92.5223 126.866C93.4973 124.977 94.0823 123.838 94.2773 123.447C97.9828 116.803 102.536 111.558 107.936 107.713C113.337 103.802 119.976 101.844 127.853 101.837C135.47 101.831 142.308 103.583 148.365 107.094C154.423 110.669 159.212 115.418 162.733 121.34C166.253 127.261 168.016 133.835 168.022 141.062Z" fill="#0058D1"/>
<path d="M157.643 97.9998C164.643 111 161.926 132.171 162.5 160L137.858 160C138.215 115 142 99.0958 114.858 99.9999C87.715 100.904 150.643 84.9999 157.643 97.9998Z" fill="black"/>
<path d="M76.543 160H53.8867C53.2357 160 52.9102 159.674 52.9102 159.023L53.1055 21.6211C53.1055 21.1003 53.3659 20.8398 53.8867 20.8398H76.3477C76.8685 20.8398 77.1289 21.1003 77.1289 21.6211L77.3242 159.023C77.3242 159.674 77.0638 160 76.543 160Z" fill="#DC241E"/>
<path d="M52.5 160V151C61.2354 157.508 67.2577 157.514 77.5 151.5V160H52.5Z" fill="#0058D1"/>
</g>
<rect x="1.25" y="1.25" width="191.5" height="200.5" rx="53.75" stroke="black" stroke-width="2.5"/>
<defs>
<linearGradient id="paint0_linear_2681_631" x1="97" y1="0" x2="97" y2="203" gradientUnits="userSpaceOnUse">
<stop offset="0.083746" stop-color="#388BFF"/>
<stop offset="0.395071" stop-color="#006AFF"/>
<stop offset="0.977499"/>
</linearGradient>
<clipPath id="clip0_2681_631">
<rect width="194" height="203" rx="55" fill="white"/>
</clipPath>
</defs>
</svg>
