<svg width="103" height="166" viewBox="0 0 103 166" fill="none" xmlns="http://www.w3.org/2000/svg">
<rect x="28" y="29" width="45" height="134" fill="white"/>
<rect x="36.5" y="37.5" width="31" height="78" fill="#00AEFF" fill-opacity="0.19"/>
<path d="M35.5 115V38C35.5 37.7239 35.7239 37.5 36 37.5H67C67.2761 37.5 67.5 37.7239 67.5 38V115C67.5 115.276 67.2761 115.5 67 115.5H36C35.7239 115.5 35.5 115.276 35.5 115Z" stroke="black" stroke-width="2"/>
<path d="M26 162.5H77.5" stroke="black" stroke-width="2"/>
<path d="M25.4111 162.5C28.1725 162.5 30.4111 160.261 30.4111 157.5V35.4653C30.4111 32.7038 32.6497 30.4652 35.4111 30.4652H67.4555C70.217 30.4652 72.4556 32.7038 72.4556 35.4652V157.5C72.4556 160.261 74.6941 162.5 77.4556 162.5H95C97.7614 162.5 100 160.261 100 157.5V8C100 5.23858 97.7614 3 95 3H8C5.23858 3 3 5.23858 3 8L3 157.5C3 160.261 5.23858 162.5 8 162.5H25.4111Z" fill="#DC241E" stroke="black" stroke-width="2"/>
<path d="M59 127V123C59 122.448 59.4477 122 60 122H66C66.5523 122 67 122.448 67 123V127C67 127.552 66.5523 128 66 128H60C59.4477 128 59 127.552 59 127Z" fill="black" stroke="black"/>
<line x1="44.2519" y1="51.0659" x2="51.2519" y2="47.0659" stroke="black" stroke-opacity="0.16"/>
<line x1="43.263" y1="56.0598" x2="56.263" y2="49.0598" stroke="black" stroke-opacity="0.16"/>
<line x1="42.2495" y1="62.0673" x2="61.2495" y2="51.0673" stroke="black" stroke-opacity="0.16"/>
<line x1="42.268" y1="67.0571" x2="63.268" y2="56.0571" stroke="black" stroke-opacity="0.16"/>
<line x1="43.2764" y1="71.0528" x2="63.2764" y2="61.0528" stroke="black" stroke-opacity="0.16"/>
<line x1="42.2886" y1="76.0469" x2="57.2886" y2="69.0469" stroke="black" stroke-opacity="0.16"/>
<line x1="49.2764" y1="77.0528" x2="57.2764" y2="73.0528" stroke="black" stroke-opacity="0.16"/>
<line x1="55.2764" y1="78.0528" x2="57.2764" y2="77.0528" stroke="black" stroke-opacity="0.16"/>
</svg>
