<svg width="186" height="234" viewBox="0 0 186 234" fill="none" xmlns="http://www.w3.org/2000/svg">
<path fill-rule="evenodd" clip-rule="evenodd" d="M99.3671 228.603L141.424 178.812L170.424 144.812L173.034 140.896C175.29 137.514 177.23 133.931 178.832 130.194C181.216 124.632 182.83 118.77 183.63 112.771L184.424 106.812V93.3233C184.424 85.35 183.365 77.3628 181.299 69.6618C179.726 63.8011 177.557 58.0772 174.843 52.6498C171.576 46.1152 167.527 40.0014 162.786 34.4428L161.96 33.4742C157.616 28.3808 152.733 23.7725 147.396 19.7299L146.581 19.1118C141.493 15.2576 135.982 11.997 130.155 9.39323L126.846 7.91493C119.301 4.54364 111.182 2.64191 102.924 2.3116L92.1576 2.02827C86.6826 1.88419 81.207 2.29112 75.8134 3.24293C69.9053 4.28554 64.13 5.97587 58.5921 8.28333L56.456 9.1734C47.4958 12.9068 39.2107 18.0883 31.9321 24.5105L31.5188 24.8753C27.7967 28.1594 24.3789 31.7731 21.3069 35.6721C15.7557 42.7179 11.3916 50.6224 8.38656 59.0739L7.72414 60.937C5.86119 66.1765 4.46448 71.5703 3.55028 77.0555L3.29137 78.6089C2.05106 86.0508 1.70249 93.6141 2.25306 101.139L2.34214 102.356C2.72932 107.647 3.62715 112.889 5.02313 118.007C7.60313 127.467 11.8526 136.39 17.5712 144.356L22.9243 151.812L45.9243 178.312L87.2023 228.229C88.3378 229.602 89.6426 231.312 91.4243 231.312H95.9243C97.2438 230.652 98.4152 229.73 99.3671 228.603ZM75.6441 73.3116H135.547C135.755 73.3116 135.924 73.1427 135.924 72.9343C135.924 72.8546 135.899 72.7769 135.852 72.7124L131.924 67.3116L128.504 62.959C127.12 61.1969 125.597 59.548 123.95 58.028C121.278 55.5608 118.297 53.4499 115.082 51.748L114.687 51.539C112.516 50.3898 110.246 49.4395 107.904 48.6998C103.941 47.4484 99.8096 46.8116 95.6538 46.8116H94.3271C89.7475 46.8116 85.1904 47.4499 80.787 48.708L80.4243 48.8116L76.7397 50.3288C73.5384 51.647 70.4858 53.3006 67.6329 55.2619C65.1657 56.9581 62.859 58.8769 60.7419 60.994L60.223 61.5129C58.3604 63.3755 56.6548 65.3888 55.1237 67.5323C53.3283 70.0459 51.7806 72.7276 50.5024 75.5397L49.9243 76.8116L47.9243 82.8116C47.2592 86.1368 46.9243 89.5196 46.9243 92.9106V93.3116C46.9243 96.9693 47.2856 100.618 48.0029 104.205L48.4243 106.312C49.4192 109.96 50.9304 113.447 52.9121 116.667L53.9243 118.312L54.0019 118.428C56.6104 122.341 59.5991 125.986 62.9243 129.312L65.8639 131.761C67.8997 133.458 70.0902 134.959 72.4066 136.246C76.0648 138.279 80.0042 139.757 84.0961 140.634L84.9243 140.812L91.4243 141.312H97.9243L98.5866 141.28C105.088 140.97 111.476 139.455 117.424 136.812L117.712 136.684C120.505 135.442 123.103 133.801 125.424 131.812C128.739 128.828 131.591 125.368 133.885 121.543L136.424 117.312L129.924 123.812C128.424 125.312 124.824 127.412 124.424 127.812C124.253 127.983 123.069 128.526 121.522 129.183C117.199 131.02 112.52 131.812 107.823 131.812H99.4867C98.788 131.812 98.0989 131.649 97.474 131.336C96.1862 130.693 95.2842 129.471 95.0475 128.051L95.0408 128.011C94.9636 127.547 94.9581 127.075 95.0245 126.61L95.0769 126.243C95.3017 124.669 96.0573 123.22 97.2186 122.134L118.424 102.312H100.379C98.1132 102.312 95.8849 101.734 93.9044 100.634C92.9216 100.088 92.0118 99.4198 91.1967 98.6454L73.849 82.1651C72.9244 81.2867 72.3109 80.1312 72.1012 78.8732C71.9842 78.1713 71.9958 77.454 72.1353 76.7562L72.2713 76.0766C72.372 75.573 72.5842 75.0983 72.8924 74.6874C73.542 73.8213 74.5614 73.3116 75.6441 73.3116Z" fill="white"/>
<path d="M91.4243 231.312C91.8243 231.312 94.5909 231.312 95.9243 231.312M91.4243 231.312H95.9243M91.4243 231.312C89.6426 231.312 88.3378 229.602 87.2023 228.229L45.9243 178.312L22.9243 151.812L17.5712 144.356C11.8526 136.39 7.60313 127.467 5.02313 118.007C3.62715 112.889 2.72932 107.647 2.34214 102.356L2.25306 101.139C1.70249 93.6141 2.05106 86.0508 3.29137 78.6089L3.55028 77.0555C4.46448 71.5703 5.86119 66.1765 7.72414 60.937L8.38656 59.0739C11.3916 50.6224 15.7557 42.7179 21.3069 35.6721C24.3789 31.7731 27.7967 28.1594 31.5188 24.8753L31.9321 24.5105C39.2107 18.0883 47.4958 12.9068 56.456 9.1734L58.5921 8.28333C64.13 5.97587 69.9053 4.28554 75.8134 3.24293C81.207 2.29112 86.6826 1.88419 92.1576 2.02827L102.924 2.3116C111.182 2.64191 119.301 4.54364 126.846 7.91493L130.155 9.39323C135.982 11.997 141.493 15.2576 146.581 19.1118L147.396 19.7299C152.733 23.7725 157.616 28.3808 161.96 33.4742L162.786 34.4428C167.527 40.0014 171.576 46.1152 174.843 52.6498C177.557 58.0772 179.726 63.8011 181.299 69.6618C183.365 77.3628 184.424 85.35 184.424 93.3233V106.812L183.63 112.771C182.83 118.77 181.216 124.632 178.832 130.194C177.23 133.931 175.29 137.514 173.034 140.896L170.424 144.812L141.424 178.812L99.3671 228.603C98.4152 229.73 97.2438 230.652 95.9243 231.312M135.547 73.3116H75.6441C74.5614 73.3116 73.542 73.8213 72.8924 74.6874C72.5842 75.0983 72.372 75.573 72.2713 76.0766L72.1353 76.7562C71.9958 77.454 71.9842 78.1713 72.1012 78.8732C72.3109 80.1312 72.9244 81.2867 73.849 82.1651L91.1967 98.6454C92.0118 99.4198 92.9216 100.088 93.9044 100.634C95.8849 101.734 98.1132 102.312 100.379 102.312H118.424L97.2186 122.134C96.0573 123.22 95.3017 124.669 95.0769 126.243L95.0245 126.61C94.9581 127.075 94.9636 127.547 95.0408 128.011L95.0475 128.051C95.2842 129.471 96.1862 130.693 97.474 131.336C98.0989 131.649 98.788 131.812 99.4867 131.812H107.823C112.52 131.812 117.199 131.02 121.522 129.183C123.069 128.526 124.253 127.983 124.424 127.812C124.824 127.412 128.424 125.312 129.924 123.812L136.424 117.312L133.885 121.543C131.591 125.368 128.739 128.828 125.424 131.812C123.103 133.801 120.505 135.442 117.712 136.684L117.424 136.812C111.476 139.455 105.088 140.97 98.5866 141.28L97.9243 141.312H91.4243L84.9243 140.812L84.0961 140.634C80.0042 139.757 76.0648 138.279 72.4066 136.246C70.0902 134.959 67.8997 133.458 65.8639 131.761L62.9243 129.312C59.5991 125.986 56.6104 122.341 54.0019 118.428L53.9243 118.312L52.9121 116.667C50.9304 113.447 49.4192 109.96 48.4243 106.312L48.0029 104.205C47.2856 100.618 46.9243 96.9693 46.9243 93.3116V92.9106C46.9243 89.5196 47.2592 86.1368 47.9243 82.8116L49.9243 76.8116L50.5024 75.5397C51.7806 72.7276 53.3283 70.0459 55.1237 67.5323C56.6548 65.3888 58.3604 63.3755 60.223 61.5129L60.7419 60.994C62.859 58.8769 65.1657 56.9581 67.6329 55.2619C70.4858 53.3006 73.5384 51.647 76.7397 50.3288L80.4243 48.8116L80.787 48.708C85.1904 47.4499 89.7475 46.8116 94.3271 46.8116H95.6538C99.8096 46.8116 103.941 47.4484 107.904 48.6998C110.246 49.4395 112.516 50.3898 114.687 51.539L115.082 51.748C118.297 53.4499 121.278 55.5608 123.95 58.028C125.597 59.548 127.12 61.1969 128.504 62.959L131.924 67.3116L135.852 72.7124C135.899 72.7769 135.924 72.8546 135.924 72.9343C135.924 73.1427 135.755 73.3116 135.547 73.3116Z" stroke="black" stroke-width="2"/>
</svg>
