<svg width="354" height="310" viewBox="0 0 354 310" fill="none" xmlns="http://www.w3.org/2000/svg">
<path d="M58.5 182.5L105.5 207V84.5L158 136L211.5 83.5H274L279.5 85L284.5 87L290 90.5L294.5 94L299 98.5L302 103L304.5 107.5L306 112L306.5 142.5L304.5 149.5L302.5 153.5L299.5 157.5L295.5 162L290.5 165.5L285.5 169L279.5 171.5H258L257 100.5H212V209.5H283.5C286.833 209.333 293.7 208.5 294.5 208.5C295.3 208.5 307 203.5 312 200.5L323 192L332.5 182.5L339.5 173.5L345.5 164L349 154.5L351 145L351.5 115.5L350.5 103.5L347 94L343 84.5L339 78L334 72L327 64.5L319 57.5L308.5 50.5L297.5 44.5L288.5 41L278.5 38.5H258V7H220L158 70L96 7H58.5V182.5Z" fill="white"/>
<path fill-rule="evenodd" clip-rule="evenodd" d="M30 78H4H3V289.5L130.518 289.019C133.789 289.006 137.014 289.797 139.909 291.32L145 294L155.874 300.162C158.587 301.699 161.622 302.581 164.736 302.737L170 303L175.519 302.71C178.147 302.571 180.722 301.915 183.097 300.78L191 297L198.295 292.745C201.376 290.948 204.881 290.007 208.447 290.02L337.5 290.5V208L313.5 228.5V267H222.937C220.015 267 217.128 267.64 214.479 268.876L211 270.5L204 274.5L191 282.5L180.465 288.016C178.587 288.999 176.562 289.669 174.443 289.709C170.311 289.787 164.388 289.5 163.631 289.5C163.231 289.9 159.833 287.333 158 286L142.6 276.488C141.536 275.831 140.412 275.275 139.243 274.827L119.786 267.375C118.268 266.794 116.684 266.4 115.071 266.202L89 263H30V78Z" fill="white"/>
<path d="M39.5 254V229.5H106.5L125.5 237L142 245L154.917 252.045C157.293 253.342 159.472 254.972 161.386 256.886L161.692 257.192C164.205 259.705 166.18 262.701 167.5 266H176C177.32 262.701 179.295 259.705 181.808 257.192L182.114 256.886C184.028 254.972 186.207 253.342 188.583 252.045L201.5 245L218 237L237 229.5H304V254H237L212 261L195.5 267.5L189.466 270.791C186.172 272.588 183.153 274.847 180.5 277.5H163C160.347 274.847 157.328 272.588 154.034 270.791L148 267.5L131.5 261L106.5 254H39.5Z" fill="white"/>
</svg>
